<?xml version="1.0" encoding="UTF-8" standalone="no"?>
<svg
   xmlns:dc="http://purl.org/dc/elements/1.1/"
   xmlns:cc="http://creativecommons.org/ns#"
   xmlns:rdf="http://www.w3.org/1999/02/22-rdf-syntax-ns#"
   xmlns:svg="http://www.w3.org/2000/svg"
   xmlns="http://www.w3.org/2000/svg"
   xmlns:xlink="http://www.w3.org/1999/xlink"
   xmlns:sodipodi="http://sodipodi.sourceforge.net/DTD/sodipodi-0.dtd"
   xmlns:inkscape="http://www.inkscape.org/namespaces/inkscape"
   inkscape:version="1.0 (4035a4fb49, 2020-05-01)"
   sodipodi:docname="Logo de la Ciudad de Buenos Aires.svg"
   viewBox="0 0 250 82.302117"
   height="82.302116"
   width="250"
   id="svg10"
   version="1.1">
  <metadata
     id="metadata16">
    <rdf:RDF>
      <cc:Work
         rdf:about="">
        <dc:format>image/svg+xml</dc:format>
        <dc:type
           rdf:resource="http://purl.org/dc/dcmitype/StillImage" />
        <dc:title></dc:title>
      </cc:Work>
    </rdf:RDF>
  </metadata>
  <defs
     id="defs14">
    <linearGradient
       id="linearGradient880-9"
       inkscape:collect="always">
      <stop
         id="stop876"
         offset="0"
         style="stop-color:#35b4e8;stop-opacity:1" />
      <stop
         id="stop878"
         offset="1"
         style="stop-color:#f8d107;stop-opacity:1" />
    </linearGradient>
    <linearGradient
       gradientUnits="userSpaceOnUse"
       y2="264.67072"
       x2="383.70645"
       y1="467.81436"
       x1="384.60693"
       id="linearGradient882"
       xlink:href="#linearGradient880-9"
       inkscape:collect="always" />
    <linearGradient
       y2="264.67072"
       x2="383.70645"
       y1="467.81436"
       x1="384.60693"
       gradientUnits="userSpaceOnUse"
       id="linearGradient902"
       xlink:href="#linearGradient880-9"
       inkscape:collect="always" />
  </defs>
  <sodipodi:namedview
     inkscape:current-layer="g891"
     inkscape:window-maximized="1"
     inkscape:window-y="-8"
     inkscape:window-x="-8"
     inkscape:cy="103.06909"
     inkscape:cx="289.5074"
     inkscape:zoom="0.70710678"
     showgrid="false"
     id="namedview12"
     inkscape:window-height="705"
     inkscape:window-width="1366"
     inkscape:pageshadow="2"
     inkscape:pageopacity="0"
     guidetolerance="10"
     gridtolerance="10"
     objecttolerance="10"
     borderopacity="1"
     bordercolor="#666666"
     pagecolor="#ffffff" />
  <g
     id="g18"
     inkscape:label="Image"
     inkscape:groupmode="layer">
    <g
       transform="scale(0.16794433)"
       id="g896">
      <g
         id="g891">
        <g
           id="g900">
          <path
             style="fill:#4b4745;fill-opacity:1;stroke-width:0.32"
             d="m 1000.5886,452.29023 c -26.53023,-3.004 -47.26243,-25.28237 -50.26573,-54.0144 -0.5833,-5.5809 -0.2271,-14.52515 0.7938,-19.92781 3.028,-16.02496 11.8194,-30.1296 24.1919,-38.81245 10.9508,-7.68515 24.1512,-11.10691 37.76003,-9.78806 7.9752,0.7729 13.9181,2.41037 20.4188,5.62598 5.4063,2.67434 9.0593,5.31127 13.5091,9.75152 4.1866,4.17767 7.2536,8.4497 9.9945,13.92115 1.5578,3.10983 3.7576,8.65044 3.7576,9.46436 0,0.17414 -4.9419,0.29449 -12.0918,0.29449 h -12.0919 l -1.151,-2 c -4.3517,-7.56147 -11.2845,-13.10669 -19.2851,-15.42518 -19.40963,-5.62467 -38.35803,8.08336 -42.95393,31.07446 -0.7936,3.96999 -0.7898,13.22951 0.01,17.21911 2.3357,11.69379 8.4528,21.53017 16.8734,27.13232 3.1735,2.11132 5.341,3.12531 9.2089,4.30803 2.49903,0.76413 3.25603,0.84499 7.88443,0.84227 4.2062,-0.003 5.5567,-0.12301 7.5668,-0.67542 8.6633,-2.3808 15.9703,-8.03143 20.5812,-15.91568 l 1.2164,-2.07991 h 12.0987 12.0988 l -0.7758,2.28087 c -1.7811,5.2368 -5.4342,11.94252 -8.9915,16.50499 -10.4386,13.38854 -26.2362,20.73011 -44.182,20.53264 -2.0749,-0.0227 -4.8526,-0.16381 -6.1726,-0.31328 z m 136.8528,0.0234 c -7.6046,-1.19127 -13.9273,-4.38356 -18.7901,-9.48695 -5.2758,-5.53683 -8.4469,-12.38425 -9.7267,-21.00332 -0.4185,-2.8185 -0.496,-7.67242 -0.496,-31.05949 v -27.71895 h 11.2 11.2 l 0.01,26.64 c 0.01,28.31789 0.014,28.47447 1.5626,32.56 2.1516,5.67469 7.465,8.9769 14.4841,9.00183 8.3218,0.0294 14.6206,-4.67021 16.5925,-12.38016 0.6087,-2.38035 0.6353,-3.59712 0.6353,-29.15287 v -26.6688 h 11.2 11.2 v 43.84 43.84 h -10.72 -10.72 v -3.8887 -3.88871 l -1.8672,1.781 c -3.586,3.42048 -8.3161,5.97017 -13.2123,7.12198 -2.7341,0.64314 -9.7464,0.90198 -12.5478,0.46314 z m 94.3472,-0.43984 c -5.6842,-1.08436 -11.755,-3.75572 -16.5377,-7.27712 -17.8071,-13.11104 -23.3537,-39.47274 -12.7108,-60.41088 5.2282,-10.28573 14.1286,-17.99459 24.5586,-21.27075 4.4614,-1.40138 8.2551,-1.87933 13.3299,-1.6794 8.7223,0.34359 15.7416,2.95946 22.32,8.31789 l 1.84,1.49875 V 347.5286 324.00493 h 11.2 11.2 v 63.35999 63.36 h -10.56 -10.56 v -4.66979 -4.66979 l -1.6189,1.38979 c -4.8294,4.14595 -10.1694,7.05984 -15.5532,8.48688 -2.7228,0.72173 -3.9258,0.84822 -8.9079,0.93677 -3.878,0.0689 -6.4919,-0.0373 -8,-0.32499 z m 15.36,-20.85232 c 3.6086,-0.86423 7.0513,-2.8408 9.9299,-5.70135 3.0854,-3.06598 4.8465,-5.91196 6.2591,-10.1152 0.8552,-2.54438 1.0471,-3.66947 1.1773,-6.90102 0.2355,-5.84512 -0.88,-10.45757 -3.7059,-15.32301 -1.656,-2.85129 -6.1088,-7.14265 -8.9242,-8.60073 -6.2357,-3.22938 -13.1538,-3.22964 -19.3924,0 -3.1912,1.65171 -7.6435,6.10963 -9.3024,9.3142 -5.835,11.27194 -3.9826,24.22036 4.6018,32.16823 5.4051,5.00432 12.3146,6.84605 19.3568,5.15961 z m 85.28,20.82828 c -10.8666,-2.06256 -20.6737,-8.82672 -26.9972,-18.62038 -8.9704,-13.89309 -9.9844,-33.26534 -2.5263,-48.26445 6.3591,-12.78896 17.4239,-21.20665 30.7536,-23.39609 3.6995,-0.60768 10.4946,-0.45271 14.042,0.32019 6.4148,1.3977 12.2981,4.37677 16.8383,8.52627 l 1.8096,1.65386 v -4.51213 -4.5121 h 10.72 10.72 v 43.84 43.84 h -10.72 -10.72 v -4.52144 -4.52144 l -1.36,1.16864 c -4.6561,4.00099 -10.2141,7.01648 -15.4921,8.40522 -2.7021,0.71097 -3.9636,0.84393 -8.9079,0.93881 -4.0628,0.078 -6.4672,-0.0237 -8.16,-0.34496 z m 15.52,-20.82832 c 6.7712,-1.62157 12.7529,-7.07594 15.6084,-14.23251 1.4022,-3.51408 1.9387,-6.96928 1.7337,-11.16532 -0.2217,-4.53814 -0.7537,-6.5782 -2.8389,-10.88595 -1.4253,-2.94464 -1.9716,-3.69641 -4.5417,-6.25017 -2.0706,-2.05738 -3.5925,-3.2521 -5.2253,-4.10173 -12.6435,-6.57898 -27.1623,0.61785 -31.1776,15.45446 -1.9334,7.14381 -0.6615,15.60963 3.2393,21.56109 5.2414,7.9967 14.299,11.75222 23.2021,9.62013 z m 84.5712,20.68912 c -4.0433,-0.87975 -5.7481,-1.48074 -9.6912,-3.41642 -11.9531,-5.86781 -20.5021,-17.54579 -23.4119,-31.98086 -0.8855,-4.39245 -0.8066,-15.13693 0.1433,-19.52909 0.9972,-4.61072 2.0898,-7.7999 4.0494,-11.8193 5.9454,-12.19478 16.7529,-20.71936 29.4592,-23.23628 3.3394,-0.66151 11.7885,-0.57994 15.2,0.14672 5.5931,1.19136 10.975,3.73334 15.4417,7.29337 l 2.3183,1.84781 0.082,-23.50582 0.082,-23.50579 h 11.1979 11.198 v 63.35999 63.36 h -10.72 -10.72 v -4.6599 -4.65987 l -2.0793,1.85987 c -4.1738,3.73347 -9.5548,6.5679 -15.5108,8.17033 -3.5945,0.96704 -13.1498,1.12141 -17.0387,0.27524 z m 16.2288,-20.69831 c 11.1926,-2.73379 18.9511,-15.25664 17.1373,-27.66121 -0.8812,-6.0264 -3.3421,-11.04602 -7.3668,-15.02615 -2.7578,-2.72723 -5.0001,-4.15929 -8.3833,-5.35408 -3.3181,-1.17174 -8.898,-1.23571 -12.4272,-0.14243 -8.0001,2.47827 -14.0232,9.536 -15.8516,18.5744 -0.6611,3.26813 -0.5062,9.73853 0.3036,12.68211 1.1796,4.28784 3.5498,8.3432 6.6739,11.4192 5.3229,5.2409 12.6786,7.27546 19.9141,5.50816 z m -378.08,-24.12723 v -43.84 h 11.36 11.36 v 43.84 43.84 h -11.36 -11.36 z m 0,-63.84 v -10.4 h 11.36 11.36 v 10.4 10.4 h -11.36 -11.36 z m 107.04,-36.1698 c -9.6121,-1.7686 -18.9577,-7.04718 -25.4027,-14.34789 -5.2946,-5.99765 -8.9558,-13.24066 -10.6566,-21.08226 -0.9428,-4.34658 -1.0297,-13.91114 -0.1656,-18.21836 3.0039,-14.97284 13.1789,-27.57179 27.1219,-33.58295 13.7255,-5.91736 30.9141,-3.94782 43.183,4.94808 4.6282,3.35578 10.0658,10.09562 12.64,15.66705 2.3555,5.0982 3.9589,10.89269 4.6263,16.7191 0.3627,3.16565 0.4387,10.50909 0.1283,12.38703 l -0.1983,1.2 h -32.7582 c -23.3068,0 -32.7581,0.10003 -32.7581,0.3467 0,0.19068 0.4378,1.44003 0.9729,2.77633 2.5794,6.44167 7.3463,11.00747 13.6493,13.07338 2.5208,0.82626 3.2562,0.92359 6.9778,0.92359 3.4659,0 4.5604,-0.12504 6.56,-0.74939 4.982,-1.55563 8.7955,-4.25745 11.0535,-7.83131 l 0.9465,-1.49815 11.92,-6.4e-4 c 6.556,-3.2e-4 11.92,0.0628 11.92,0.14036 0,0.54752 -1.923,5.29945 -3.0509,7.53907 -3.8337,7.6126 -10.2396,13.92793 -18.0016,17.74712 -3.2915,1.61956 -6.0008,2.54217 -10.0588,3.42539 -4.0064,0.87199 -14.8586,1.11505 -18.6487,0.41768 z m 28.8378,-55.56119 c -0.3293,-1.64651 -2.3007,-5.41349 -3.8656,-7.38638 -2.8752,-3.62477 -6.8233,-6.10166 -11.6652,-7.31831 -2.2668,-0.56959 -3.3304,-0.65215 -6.72,-0.52163 -6.2074,0.23902 -9.6919,1.67763 -14.0195,5.78802 -2.5346,2.40732 -4.4123,5.13261 -5.6713,8.231 -0.4489,1.10475 -0.8162,2.05581 -0.8162,2.11347 0,0.0576 9.666,0.10482 21.48,0.10482 h 21.48 z m 63.8022,55.86275 c -0.44,-0.0778 -2.168,-0.37257 -3.84,-0.65495 -12.0143,-2.02907 -22.1365,-8.83195 -27.3137,-18.35681 -1.3481,-2.48027 -2.9624,-7.18185 -3.2687,-9.52 l -0.2201,-1.68 h 11.1958 11.1957 l 1.1831,1.91677 c 2.0665,3.34792 6.4138,6.24455 11.3879,7.5878 2.8348,0.76553 10.4225,0.7588 13.6,-0.0121 3.1385,-0.7614 6.0587,-2.25747 7.1184,-3.64687 0.7829,-1.0264 0.8816,-1.42734 0.8816,-3.58073 0,-2.01732 -0.1236,-2.5982 -0.7354,-3.4559 -1.6084,-2.25495 -6.763,-3.90349 -17.7896,-5.68939 -11.9696,-1.93863 -17.0282,-3.29008 -22.435,-5.99368 -7.131,-3.56581 -11.7431,-8.82676 -12.9797,-14.80594 -0.612,-2.95896 -0.4699,-8.20047 0.3017,-11.12757 2.8893,-10.96092 12.9819,-18.87327 27.078,-21.22833 4.4788,-0.74827 13.6877,-0.75535 17.76,-0.0136 11.9989,2.18543 20.7089,7.84357 25.7844,16.74996 1.3834,2.42754 2.7821,6.14755 3.1958,8.49958 l 0.211,1.2 h -11.5017 -11.5017 l -1.0096,-1.55808 c -1.1882,-1.83362 -3.6164,-3.59294 -6.2982,-4.56325 -2.9661,-1.07315 -10.598,-1.23762 -14.2786,-0.30771 -4.6191,1.167 -7.4814,3.56789 -7.4814,6.27528 0,3.70073 3.3554,5.14564 18.2231,7.84727 17.6196,3.20168 25.21,6.0574 30.292,11.39672 4.3857,4.60778 5.9476,9.23911 5.641,16.72628 -0.2408,5.87822 -1.8559,10.30702 -5.4729,15.00717 -3.4425,4.47347 -9.5952,8.60629 -16.0432,10.77637 -4.9484,1.66539 -8.1052,2.13146 -15.2,2.24405 -3.784,0.06 -7.24,0.0455 -7.68,-0.0324 z m -373.12003,-1.87594 c 0,-0.0793 8.7287,-25.1713 19.3972,-55.76 10.6684,-30.5887 19.8253,-56.87581 20.3486,-58.41581 l 0.9514,-2.8 h 14.1772 c 13.2049,0 14.1922,0.0384 14.3972,0.56 0.728,1.85275 40.48843,116.03088 40.48843,116.26868 0,0.16982 -4.9173,0.29131 -11.79033,0.29131 h -11.7903 l -3.9263,-11.68 -3.9262,-11.68 h -23.4154 -23.4154 l -1.0704,3.28 c -0.5888,1.804 -2.3643,7.06 -3.9455,11.68 l -2.8751,8.4 h -11.8025 c -6.4914,0 -11.8026,-0.0649 -11.8026,-0.14418 z m 71.0409,-44.25582 c 0,-0.33071 -16.1412,-47.72637 -16.2261,-47.64143 -0.1704,0.17035 -16.0948,47.17394 -16.0948,47.50641 0,0.28175 4.0194,0.37502 16.16,0.37502 8.888,0 16.1604,-0.108 16.1609,-0.24 z m 47.99913,0.88 v -43.51999 h 11.2 11.2 v 43.51999 43.52 h -11.2 -11.2 z m 40,0 v -43.51999 h 10.72 10.72 v 4.05072 4.05072 l 2,-1.90064 c 3.606,-3.42686 8.0503,-6.1193 12.0165,-7.27973 6.4321,-1.88195 15.2859,-1.21204 22.1741,1.67778 12.7258,5.33893 20.1294,18.7668 20.1294,36.50853 v 3.53261 h -11.1552 -11.1553 l -0.1845,-4.4 c -0.2734,-6.51913 -1.4923,-10.02278 -4.5531,-13.08763 -2.9302,-2.93412 -6.2396,-4.10955 -11.5119,-4.08878 -3.5117,0.0138 -5.9991,0.58961 -8.5789,1.98585 -2.0064,1.0859 -5.3536,4.6538 -6.4086,6.8312 -1.848,3.81418 -1.8125,3.18114 -1.8125,32.3466 v 26.81276 h -11.2 -11.2 z m -40,-63.19999 v -10.4 h 11.2 11.2 v 10.4 10.4 h -11.2 -11.2 z m -66.24003,-28.20731 c -4.8225,-0.72429 -7.6787,-1.56282 -11.04,-3.24111 -9.2689,-4.62803 -15.1594,-12.62056 -17.8586,-24.23158 -0.6487,-2.79057 -0.6729,-3.78679 -0.7781,-32.08 l -0.1086,-29.199996 h 11.0527 11.0526 v 25.416836 c 0,25.51428 0.1147,28.64898 1.1712,32.02316 1.4285,4.56205 4.8887,8.11588 9.3888,9.64281 1.3717,0.46543 2.6426,0.59107 5.76,0.56948 4.2823,-0.0297 6.2221,-0.49709 9.1264,-2.19912 1.9453,-1.14004 4.9159,-4.50068 5.9707,-6.75479 1.8496,-3.95253 1.8513,-3.9819 1.8574,-32.53838 l 0.01,-26.159996 h 11.04 11.04 v 43.519996 43.52 h -10.5605 -10.56 v -3.88871 -3.88871 l -1.8662,1.78004 c -4.0203,3.83479 -9.2553,6.494 -14.6291,7.4311 -2.5108,0.43784 -7.9948,0.58984 -10.0647,0.27897 z m 98.44313,-0.13368 c -9.4236,-1.30497 -18.1688,-5.7381 -25.1725,-12.76057 -6.5584,-6.57589 -10.8854,-14.62116 -12.6876,-23.58988 -0.8682,-4.32076 -0.7835,-13.87042 0.1621,-18.26334 3.8397,-17.838206 17.5624,-31.644466 35.2679,-35.482536 4.1565,-0.90103 13.3923,-0.822 17.8981,0.15316 4.2359,0.91675 6.4668,1.66284 10.1165,3.38328 13.1451,6.19656 21.8376,18.986446 23.9725,35.272596 0.4847,3.69757 0.6402,11.41604 0.2745,13.62828 l -0.1983,1.2 h -32.7797 -32.7797 l 0.2152,0.72 c 2.2147,7.40934 7.6436,13.2499 14.2279,15.30669 3.3731,1.05368 6.9868,1.4025 10.0665,0.97167 3.0872,-0.43187 6.6728,-1.58121 8.7796,-2.81419 1.9533,-1.14312 4.6333,-3.70522 5.8664,-5.6082 l 0.9953,-1.53597 h 11.9308 11.9308 l -0.4232,1.36 c -2.1523,6.91771 -6.4429,13.49045 -11.8767,18.19413 -5.6271,4.871 -11.6211,7.7532 -19.2536,9.25797 -3.9629,0.78131 -12.9033,1.10951 -16.5328,0.60691 z m 27.1983,-55.73901 c -0.1092,-0.572 -0.7954,-2.25462 -1.5248,-3.73914 -1.8836,-3.83366 -5.4571,-7.41368 -9.2366,-9.25351 -3.9332,-1.914646 -6.1642,-2.412646 -10.72,-2.392926 -3.2386,0.014 -4.241,0.14712 -6.4,0.849756 -4.39,1.42867 -8.2416,4.13376 -10.8762,7.63856 -1.3521,1.79868 -3.3287,5.5205 -3.833,7.21726 l -0.2139,0.72 h 21.5015 21.5016 z m 161.5586,55.73504 c -17.9821,-2.46476 -32.5334,-16.29721 -36.6936,-34.88103 -0.6564,-2.93211 -0.7459,-4.16338 -0.742,-10.21401 0,-5.47439 0.1248,-7.43571 0.594,-9.6 2.0587,-9.49637 6.1929,-17.224766 12.6691,-23.683236 8.6507,-8.62703 19.3563,-12.80812 31.6925,-12.37759 8.768,0.306 15.3316,2.39313 22.5398,7.16726 3.8439,2.5459 9.1744,7.75325 11.6519,11.38253 3.6933,5.410506 6.4538,12.188686 7.5877,18.631036 0.7631,4.33541 0.7662,12.59378 0.01,16.96 -3.1418,18.05429 -16.9227,32.46565 -34.5858,36.16782 -3.0443,0.63809 -11.4616,0.89383 -14.72,0.44722 z m 12.32,-21.09724 c 3.2682,-1.0921 5.3966,-2.46069 8.1674,-5.25168 2.9614,-2.983 4.727,-6.04907 6.1052,-10.60191 0.7759,-2.56302 0.8694,-3.38579 0.8886,-7.82421 0.018,-4.19207 -0.091,-5.38113 -0.7055,-7.68 -2.4013,-8.98398 -8.2402,-15.32206 -15.9264,-17.28786 -7.3994,-1.892436 -15.1053,0.71238 -20.2293,6.8381 -1.6499,1.9725 -4.3141,7.295 -4.9904,9.96976 -1.4809,5.85704 -1.276,12.04214 0.5798,17.50554 1.4147,4.16462 2.7387,6.30821 5.7906,9.37523 2.8412,2.85525 5.1939,4.21187 9.1765,5.29146 3.0892,0.83741 8.0854,0.68746 11.1435,-0.33443 z m 78.08,21.09132 c -11.9734,-1.33628 -22.6775,-7.1167 -28.6327,-15.46226 -1.9445,-2.72492 -4.1299,-7.42766 -4.9446,-10.64018 -1.1236,-4.43087 -2.4287,-3.94668 10.638,-3.94668 h 11.3008 l 0.542,1.13667 c 1.3614,2.85491 5.3141,5.99592 9.4403,7.50179 7.7137,2.81519 19.7538,1.28339 23.0723,-2.93538 1.2416,-1.57841 1.4267,-4.65334 0.3956,-6.57007 -1.3644,-2.53638 -6.4585,-4.2457 -18.3691,-6.16369 -16.6603,-2.68286 -24.0205,-5.48727 -29.8496,-11.37342 -4.0193,-4.05861 -5.5798,-8.08672 -5.5883,-14.42471 -0.016,-11.763526 7.1827,-20.777146 20.3789,-25.517986 4.7708,-1.71396 8.8613,-2.27981 16.4164,-2.2709 5.8876,0.007 7.3524,0.1105 10.1548,0.7179 13.8575,3.00354 23.7904,11.40063 26.943,22.777256 1.0901,3.9337 2.3567,3.52254 -10.8513,3.52254 h -11.5135 l -0.6355,-1.24562 c -1.2156,-2.38293 -4.5261,-4.56898 -8.3375,-5.505696 -2.547,-0.62597 -9.8419,-0.53728 -12.48,0.151726 -5.1857,1.35438 -8.3237,4.4794 -7.3774,7.3468 1.0211,3.09405 4.0155,4.23006 17.8874,6.78613 13.0985,2.41354 18.9001,4.03929 23.9779,6.71919 6.5044,3.43277 10.4513,8.27409 11.7524,14.41549 0.5922,2.79552 0.6044,8.61677 0.024,11.33198 -2.6592,12.43422 -14.156,21.39614 -30.1852,23.52976 -3.7128,0.4942 -10.3024,0.54975 -14.1589,0.11936 z M 816.58859,110.08306 V 51.326664 l 30.16,0.11996 c 32.50176,0.12928 32.53456,0.13088 38.47998,1.88334 10.5275,3.10305 17.4669,10.61041 19.7736,21.39185 0.7971,3.72603 0.9443,11.86467 0.2691,14.88321 -1.364,6.09801 -5.2142,12.312046 -9.8027,15.821116 -0.9044,0.69166 -0.925,0.75515 -0.3554,1.09652 5.7362,3.43797 8.9716,6.69778 11.6906,11.77867 2.4096,4.50293 3.5447,9.67157 3.5366,16.10369 -0.013,10.3634 -3.151,18.45731 -9.5018,24.50854 -5.0889,4.84893 -10.5061,7.50104 -18.65,9.1305 -2.4214,0.48448 -6.17118,0.55801 -34.15998,0.66981 l -31.44,0.12558 z m 58.43808,37.75018 c 7.2071,-1.24715 11.3865,-5.2698 12.3456,-11.88238 0.4383,-3.02259 0.078,-6.20777 -1.0403,-9.19692 -0.9253,-2.47306 -3.6017,-5.32517 -6.1726,-6.57789 -4.28745,-2.08913 -4.30899,-2.09103 -23.73078,-2.09103 h -17.6 l -0.0834,14.72 c -0.0459,8.096 -0.0144,14.9 0.07,15.12 0.24832,0.64771 32.40918,0.56619 36.21152,-0.0918 z m 0.22342,-51.033416 c 5.46018,-1.68647 8.85848,-6.41075 8.85848,-12.3148 0,-5.61242 -2.6874,-9.74985 -7.63118,-11.74868 -1.79914,-0.72741 -1.90509,-0.73181 -19.8088,-0.82388 l -18,-0.0926 v 12.81256 12.81256 h 17.2463 c 16.38861,0 17.35018,-0.0321 19.3352,-0.6452 z M 1110.6686,125.28502 V 81.765024 h 10.56 10.56 v 4.02996 4.02997 l 2.284,-2.11465 c 4.0472,-3.74705 7.743,-5.87463 12.7059,-7.31445 2.1306,-0.61812 3.1596,-0.7068 7.8901,-0.68 4.7632,0.027 5.8229,0.13286 8.518,0.85093 12.532,3.33893 20.6338,12.3152 24.0432,26.638236 0.6703,2.8156 0.688,3.53652 0.7948,32.24 l 0.1092,29.36 h -11.0526 -11.0526 v -25.68 c 0,-27.34271 -0.098,-29.36553 -1.5676,-33.23369 -2.4431,-6.43022 -8.131,-9.68014 -16.0109,-9.14829 -4.7557,0.32098 -8.0484,1.82537 -11.0197,5.03474 -1.9288,2.08338 -2.9607,3.85009 -3.9175,6.70724 -0.5509,1.64494 -0.5959,3.54339 -0.6876,29.04 l -0.098,27.28 h -11.0281 -11.0281 v -43.52 z"
             id="path22"
             sodipodi:nodetypes="cssssssssscssscsscsscccssscccssscccccssscccccccccssccsssssscccccccccccsssscssssscsscccssssscccccccccccssscssssssssssssssssscccccccccccsssssssssssssccccccccccccccccccssssssssscssssssscssssssssssssssscssssscccsssssssssssssscccssssssssssssssscsssscccccsscsscsssccccccccccccccccsssscccssssssccccccccccccccssscccssssssccccccccccssccssssssssscccssssscccssssssssssscccscscsssssscsccsssssssssssssssscsssssssssssscssssssscsssccsssssssssssccssssscsssssssscccsssccccccsssssscccssssssccccc" />
          <path
             sodipodi:nodetypes="ssssssssssccccssscssssssssssssssssssssssssssssscsssssss"
             id="path22-6"
             d="m 442.98859,489.86626 c -16.00605,-1.38992 -31.08173,-8.39171 -42.50192,-19.73971 -3.10995,-3.09028 -5.84627,-6.39815 -8.37277,-10.12154 -1.0151,-1.496 -1.94355,-2.75866 -2.06317,-2.80589 -0.11961,-0.0472 -3.63494,1.57795 -7.8118,3.61155 -22.06176,10.74116 -48.88327,18.76109 -75.41034,22.54858 -6.06704,0.86624 -10.36893,1.34326 -20.8,2.30653 -5.62332,0.51929 -217.557163,0.77072 -223.519993,0.26518 -15.894273,-1.34752 -30.252543,-7.89955 -41.714173,-19.03517 -6.12573,-5.95145 -10.38286,-11.80246 -13.97765,-19.21078 -3.03077,-6.24595 -4.56432,-10.98496 -6.00605002,-18.56 C 0.32846113,426.87944 0.0800742,424.37202 0.13850145,421.9683 L 0.03049398,249.12501 c -0.0779,-124.59029 -0.009,-177.561996 0.23501,-180.159986 1.26584002,-13.49081 6.47399002,-26.30656 14.95502002,-36.8 2.66171,-3.29329 8.62421,-9.02592 12.03515,-11.57116 8.89642,-6.6385 18.36632,-10.6715197 30.132923,-12.8329397 l 3.84,-0.70537 97.119993,-0.10386 c 95.41671,-0.10204 104.91142,-0.0269 115.52,0.91445 25.94805,2.3024397 51.93786,8.9722197 75.36,19.3397097 5.38803,2.38493 15.79443,7.592 19.85478,9.93477 29.08784,16.78328 50.05559,46.20395 56.30525,79.004146 1.39629,7.32801 1.79738,11.31501 1.98311,19.71218 0.19155,8.66138 -0.0936,13.653 -1.19392,20.89832 -3.07223,20.23025 -11.56823,39.54107 -24.51892,55.72975 -5.20211,6.5028 -15.12508,16.09866 -20.99596,20.30384 -0.83914,0.60104 -1.41514,1.19634 -1.28,1.32288 0.1351,0.12655 2.36419,1.16818 4.95347,2.31473 22.25939,9.85656 41.7519,27.0384 54.44665,47.99247 2.03044,3.35144 2.10592,3.43215 2.54346,2.72 0.248,-0.40366 28.34333,-54.63228 62.43405,-120.50805 34.09069,-65.87577 62.86381,-121.232016 63.94025,-123.013906 4.09101,-6.77208 10.3841,-14.43438 16.1392,-19.65069 14.28132,-12.94436 30.39696,-20.4958297 49.86858,-23.36741013 5.41181,-0.79811 18.90224,-0.79861 24.32,-9.1e-4 10.88086,1.60209003 19.37549,4.22359043 28.65277,8.84248043 16.80912,8.3687697 30.3448,21.3806397 39.45129,37.9245697 1.85399,3.36814 174.91772,337.601846 178.35462,344.451736 3.3634,6.70342 5.5563,14.35273 6.521,22.74604 0.4832,4.20375 0.2211,14.04282 -0.4859,18.24221 -2.6561,15.77638 -10.7452,30.22106 -22.687,40.51232 -25.87456,22.29846 -63.78227,22.32045 -89.64678,0.052 -7.3535,-6.33114 -12.1464,-12.68422 -17.20554,-22.8064 -1.496,-2.99312 -3.57923,-6.59312 -4.62944,-8 -5.49184,-7.35696 -13.27545,-12.2601 -22.32502,-14.06323 -2.31731,-0.46173 -12.67709,-0.50167 -109.28,-0.42141 l -106.72,0.0887 -3.0288,0.89127 c -3.61869,1.06483 -8.12445,3.1479 -10.92986,5.05302 -3.14438,2.13533 -7.47712,6.50934 -9.61728,9.70886 -1.05552,1.57802 -2.74467,4.60519 -3.75369,6.72701 -10.58179,22.25216 -31.38538,36.93498 -55.55037,39.20647 -3.29594,0.30982 -9.25402,0.36502 -12.16,0.11267 z"
             style="fill:url(#linearGradient902);fill-opacity:1;stroke-width:0.32" />
        </g>
      </g>
    </g>
  </g>
</svg>
